<?xml version="1.0" standalone="no"?>
<!DOCTYPE svg PUBLIC "-//W3C//DTD SVG 20010904//EN"
 "http://www.w3.org/TR/2001/REC-SVG-20010904/DTD/svg10.dtd">
<svg version="1.0" xmlns="http://www.w3.org/2000/svg"
 width="260.000000pt" height="260.000000pt" viewBox="0 0 260.000000 260.000000"
 preserveAspectRatio="xMidYMid meet">
<metadata>
Created by potrace 1.14, written by Peter Selinger 2001-2017
</metadata>
<g transform="translate(0.000000,260.000000) scale(0.100000,-0.100000)"
fill="#000000" stroke="none">
<path d="M1218 2223 l-3 -28 -115 -7 c-63 -3 -128 -11 -145 -16 -16 -6 -88
-31 -158 -56 -78 -28 -145 -46 -172 -46 -34 0 -47 -5 -60 -22 -15 -23 -15 -23
27 -29 l43 -6 -47 -1 c-41 -2 -48 -5 -48 -23 0 -11 -5 -30 -12 -42 -15 -28
-11 -81 7 -117 13 -25 22 -29 82 -36 38 -4 71 -9 76 -10 4 -1 13 -2 20 -3 7 0
20 -16 29 -34 17 -36 69 -67 110 -67 33 0 86 35 100 66 l12 26 375 -8 375 -7
32 -33 c28 -30 38 -34 82 -34 45 0 55 4 92 40 32 31 50 40 75 40 77 0 103 40
82 121 -9 32 -10 33 -18 12 -10 -28 -19 -29 -50 -4 -56 43 -110 61 -215 73
-86 9 -107 15 -115 31 -10 18 -8 19 68 12 119 -10 186 -24 195 -40 16 -27 40
-45 61 -45 21 1 20 2 -8 26 -29 25 -29 25 -5 18 14 -3 27 -9 30 -13 3 -3 12
-7 20 -9 10 -1 7 5 -7 17 -26 21 -129 47 -253 63 -72 9 -101 18 -190 64 -57
30 -111 52 -119 49 -9 -3 -12 -3 -8 1 14 14 -55 34 -139 41 l-84 6 0 28 c0 37
-18 38 -22 2z m-4 -75 c3 -13 7 -40 8 -60 l4 -37 -51 -4 c-48 -3 -48 -3 13 -5
49 -2 62 -5 62 -18 0 -14 -17 -15 -147 -9 -82 4 -169 7 -195 7 -38 -1 -48 3
-48 16 0 15 11 17 82 16 l83 -1 -75 6 -75 6 50 29 c28 16 61 36 74 44 26 15
98 29 168 31 37 1 43 -2 47 -21z m241 -19 c38 -16 92 -43 120 -61 44 -27 48
-32 30 -39 -18 -8 -17 -9 5 -8 41 2 48 0 54 -17 5 -13 -11 -15 -142 -9 -81 3
-158 10 -172 16 -14 5 -38 8 -54 6 -16 -1 -31 4 -33 11 -3 8 10 13 44 14 43 1
44 2 11 5 -40 4 -41 6 -52 85 l-5 37 62 -5 c35 -3 93 -18 132 -35z m-605 -93
c0 -18 -7 -19 -136 -13 -75 3 -139 8 -142 12 -17 17 34 24 150 22 118 -2 128
-3 128 -21z m106 -86 c8 0 14 -7 14 -15 0 -11 -5 -10 -24 6 -16 14 -22 27 -18
38 6 13 7 12 10 -6 2 -13 10 -23 18 -23z m344 20 c6 -11 7 -20 2 -20 -6 0 -12
9 -15 20 -3 11 -3 20 -1 20 2 0 8 -9 14 -20z m117 14 c-3 -3 -12 -4 -19 -1 -8
3 -5 6 6 6 11 1 17 -2 13 -5z m-422 -14 c3 -5 1 -10 -4 -10 -6 0 -11 5 -11 10
0 6 2 10 4 10 3 0 8 -4 11 -10z m60 0 c3 -5 1 -10 -4 -10 -6 0 -11 5 -11 10 0
6 2 10 4 10 3 0 8 -4 11 -10z m75 -7 c0 -15 -2 -16 -10 -3 -8 12 -10 12 -10 1
0 -8 -3 -12 -6 -8 -8 7 4 27 17 27 5 0 9 -8 9 -17z m56 -10 c-10 -10 -19 5
-10 18 6 11 8 11 12 0 2 -7 1 -15 -2 -18z m58 12 c3 -8 1 -15 -4 -15 -6 0 -10
7 -10 15 0 8 2 15 4 15 2 0 6 -7 10 -15z m136 0 c0 -8 -7 -15 -15 -15 -13 0
-14 3 -3 15 16 18 18 18 18 0z m250 -11 c0 -8 -4 -14 -8 -14 -4 0 -8 9 -8 19
0 11 4 17 8 15 4 -3 8 -12 8 -20z m37 20 c-3 -3 -12 -4 -19 -1 -8 3 -5 6 6 6
11 1 17 -2 13 -5z m-227 -14 c0 -5 -4 -10 -10 -10 -5 0 -10 5 -10 10 0 6 5 10
10 10 6 0 10 -4 10 -10z m54 -5 c-4 -8 -8 -15 -10 -15 -2 0 -4 7 -4 15 0 8 4
15 10 15 5 0 7 -7 4 -15z m76 0 c0 -8 -7 -15 -15 -15 -13 0 -14 3 -3 15 16 18
18 18 18 0z m-816 -39 c-16 -13 -31 -23 -33 -21 -2 2 10 15 25 29 16 13 31 23
33 21 2 -2 -10 -15 -25 -29z m276 18 c0 -8 -4 -12 -10 -9 -5 3 -10 10 -10 16
0 5 5 9 10 9 6 0 10 -7 10 -16z m55 -14 c2 -12 1 -20 -2 -16 -4 4 -8 16 -10
28 -4 28 6 18 12 -12z m732 24 c-3 -3 -12 -4 -19 -1 -8 3 -5 6 6 6 11 1 17 -2
13 -5z m60 0 c-3 -3 -12 -4 -19 -1 -8 3 -5 6 6 6 11 1 17 -2 13 -5z m-661 -36
c-4 -48 -4 -47 -26 -43 -12 2 -20 -2 -20 -10 0 -9 -8 -12 -22 -10 -23 4 -23 4
-3 -12 19 -15 19 -15 -7 -11 -16 3 -28 1 -28 -5 0 -6 -3 -7 -7 -4 -9 9 27 48
38 41 5 -3 9 2 9 10 0 9 5 15 12 14 7 -2 12 2 13 9 0 9 32 49 42 52 1 1 0 -14
-1 -31z m134 18 c0 -8 8 -16 18 -18 9 -2 -5 -4 -33 -4 -27 0 -42 2 -32 4 9 2
17 10 17 18 0 8 7 14 15 14 8 0 15 -6 15 -14z m60 0 c0 -8 6 -17 13 -19 9 -4
9 -6 0 -6 -7 -1 -17 8 -23 19 -7 14 -7 20 0 20 5 0 10 -6 10 -14z m57 7 c-4
-3 -3 -11 3 -17 6 -8 3 -12 -9 -12 -12 0 -17 6 -13 18 2 10 9 18 15 18 6 0 7
-3 4 -7z m56 -13 c-3 -11 -7 -20 -9 -20 -2 0 -4 9 -4 20 0 11 4 20 9 20 5 0 7
-9 4 -20z m257 16 c0 -2 -7 -7 -16 -10 -8 -3 -12 -2 -9 4 6 10 25 14 25 6z
m166 -18 c5 4 6 3 2 -2 -4 -5 -3 -15 3 -23 21 -25 3 -13 -22 14 -13 15 -17 22
-8 15 9 -6 20 -8 25 -4z m-995 -15 c13 -16 12 -17 -3 -4 -10 7 -18 15 -18 17
0 8 8 3 21 -13z m770 -12 c-12 -16 -21 -34 -21 -40 0 -6 -5 -11 -11 -11 -5 0
-7 6 -3 13 16 28 46 67 50 67 3 0 -4 -13 -15 -29z m-1008 -26 c-3 -9 -8 -14
-10 -11 -3 3 -2 9 2 15 9 16 15 13 8 -4z m139 -10 c-5 -29 4 -32 28 -10 15 14
19 14 31 -2 11 -13 11 -15 1 -9 -8 5 -22 1 -34 -11 -15 -13 -22 -14 -25 -6 -4
10 -7 10 -17 0 -11 -10 -11 -14 2 -23 15 -11 23 -74 10 -74 -5 0 -8 16 -8 36
l0 37 -21 -27 c-11 -14 -25 -23 -30 -20 -6 3 -3 11 7 18 25 19 27 64 3 71 -11
4 -17 11 -13 16 4 6 13 4 23 -5 25 -23 34 -20 29 9 -3 16 -1 25 7 25 8 0 10
-9 7 -25z m988 16 c0 -6 -4 -13 -10 -16 -5 -3 -10 1 -10 9 0 9 5 16 10 16 6 0
10 -4 10 -9z m-9 -36 c12 1 27 9 34 18 12 16 13 16 26 0 7 -10 9 -15 5 -11 -5
4 -16 2 -24 -4 -21 -18 -69 -18 -83 -2 -6 8 -16 11 -23 7 -6 -4 -5 1 3 10 13
16 15 16 27 -1 7 -10 23 -18 35 -17z m146 -17 c-3 -7 -5 -2 -5 12 0 14 2 19 5
13 2 -7 2 -19 0 -25z m-167 -27 c0 -9 -7 -24 -14 -34 -13 -16 -14 -16 -27 0
-7 10 -9 15 -5 11 10 -9 36 9 36 24 0 6 -11 8 -25 6 -15 -3 -25 -1 -25 7 0 7
11 10 30 7 20 -3 30 -10 30 -21z m100 15 c0 -9 -8 -12 -25 -8 -14 2 -25 0 -25
-6 0 -15 26 -33 36 -24 4 4 2 -1 -5 -11 -13 -17 -14 -17 -26 0 -13 21 -29 61
-20 51 5 -5 28 -1 63 11 1 1 2 -5 2 -13z m-1110 -6 c0 -5 -7 -10 -15 -10 -8 0
-15 5 -15 10 0 6 7 10 15 10 8 0 15 -4 15 -10z m120 3 c0 -5 -13 -8 -30 -9
-16 -1 -27 3 -24 7 6 11 54 12 54 2z m920 -43 c0 -16 -4 -30 -8 -30 -5 0 -9
14 -9 30 0 17 4 30 9 30 4 0 8 -13 8 -30z m-930 5 c18 11 11 -1 -12 -21 -13
-10 -20 -15 -16 -10 4 5 2 18 -4 30 -10 19 -10 20 5 8 9 -8 21 -11 27 -7z"/>
<path d="M1088 2043 c7 -3 16 -2 19 1 4 3 -2 6 -13 5 -11 0 -14 -3 -6 -6z"/>
<path d="M1380 2038 c0 -5 46 -7 103 -6 106 1 94 6 -31 10 -39 2 -72 0 -72 -4z"/>
<path d="M1190 1900 c0 -5 5 -10 10 -10 6 0 10 5 10 10 0 6 -4 10 -10 10 -5 0
-10 -4 -10 -10z"/>
<path d="M909 1683 c-1 -5 -1 -11 0 -15 0 -5 -3 -8 -9 -8 -5 0 -10 5 -10 11 0
6 -16 1 -35 -11 -19 -12 -40 -18 -46 -14 -8 5 -9 3 -5 -5 5 -8 3 -11 -5 -9 -8
1 -30 -10 -51 -26 -30 -24 -34 -32 -23 -43 10 -9 20 -10 37 -4 20 9 10 16 -15
12 -17 -3 -1 22 24 38 18 11 21 11 12 1 -17 -19 -16 -27 3 -34 12 -4 15 -2 11
9 -7 17 9 30 18 15 4 -6 15 -8 26 -5 11 4 19 2 19 -4 0 -6 -6 -11 -13 -11 -7
0 -20 -9 -30 -20 -20 -23 -22 -34 -5 -24 6 4 17 -1 25 -11 13 -18 13 -18 28 1
8 10 13 23 11 28 -1 6 13 24 31 40 39 36 44 61 11 51 -13 -4 -29 -14 -36 -24
-12 -14 -13 -13 -10 8 2 17 10 25 25 26 26 2 44 15 22 16 -8 0 -6 4 6 9 17 7
17 9 3 9 -10 1 -19 -2 -19 -6z m-52 -48 c-11 -24 -37 -35 -37 -16 0 6 34 36
47 40 0 1 -4 -10 -10 -24z"/>
<path d="M946 1674 c-8 -22 1 -34 21 -27 12 5 14 3 8 -8 -7 -12 -6 -12 7 -1 8
7 24 10 34 6 16 -5 16 -4 4 5 -8 6 -28 11 -45 12 -25 0 -27 2 -10 8 11 5 26 6
34 3 9 -3 12 -1 7 6 -11 18 -53 15 -60 -4z"/>
<path d="M1704 1681 c3 -5 -1 -14 -8 -20 -10 -8 -16 -9 -21 -1 -3 5 -12 10
-18 10 -7 0 -6 -4 3 -10 9 -6 10 -10 3 -10 -6 0 -20 -3 -30 -6 -15 -5 -16 -4
-3 6 13 10 12 11 -3 6 -10 -3 -24 -6 -30 -6 -7 -1 0 -8 16 -16 15 -8 27 -19
27 -24 0 -7 -30 -22 -50 -25 -3 0 -10 -4 -16 -8 -7 -4 -17 0 -24 8 -11 13 -7
17 21 27 31 11 31 12 11 19 -12 5 -44 4 -71 -1 -27 -5 -71 -7 -98 -5 -44 4
-45 4 -18 -6 17 -6 47 -11 68 -11 30 1 37 -3 33 -14 -5 -14 5 -18 33 -15 7 2
10 -2 6 -8 -3 -6 -11 -11 -17 -11 -6 0 -21 -8 -32 -17 -21 -18 -21 -18 -2 5
11 12 14 22 8 22 -6 0 -14 -5 -17 -10 -4 -6 -11 -8 -16 -4 -5 3 -25 0 -44 -6
-19 -6 -48 -13 -64 -15 -27 -4 -28 -2 -24 31 3 22 1 34 -7 34 -7 0 -10 -7 -6
-15 8 -21 -3 -45 -21 -45 -8 0 -11 5 -7 12 4 7 3 8 -5 4 -6 -4 -9 -12 -6 -17
4 -5 1 -9 -4 -9 -12 0 -14 11 -5 34 3 9 11 13 18 9 6 -4 6 0 -2 9 -16 20 -2
31 39 30 16 0 29 4 29 9 0 5 -20 8 -45 7 -24 0 -42 -5 -39 -10 3 -4 -19 -7
-49 -7 -29 1 -63 -2 -75 -5 -17 -6 -21 -4 -16 7 3 10 -2 18 -15 22 -12 3 -21
10 -21 15 0 4 -14 13 -31 19 -41 14 -44 14 -29 -3 6 -8 19 -12 27 -9 10 4 14
2 10 -4 -7 -11 28 -53 43 -53 6 0 10 -8 10 -17 0 -15 1 -15 13 2 10 12 16 14
21 7 4 -7 22 -11 39 -11 l32 1 -30 8 c-27 7 -26 8 15 8 25 0 39 -2 32 -5 -6
-2 -10 -9 -6 -14 5 -9 -26 -13 -76 -11 -22 1 -23 0 -5 -7 19 -7 18 -8 -5 -21
-14 -8 -38 -13 -55 -12 -25 1 -23 -1 10 -9 34 -8 42 -7 55 9 20 24 51 36 43
16 -3 -7 -9 -14 -14 -14 -5 0 -9 -7 -9 -16 0 -14 -8 -15 -55 -9 -34 4 -59 2
-67 -4 -7 -6 -24 -20 -38 -31 -23 -19 -23 -20 -5 -19 52 4 99 -2 85 -10 -9 -5
-50 -3 -95 4 -54 8 -68 13 -42 14 20 0 37 5 37 11 0 5 -8 9 -17 8 -37 -3 -51
3 -56 22 -6 24 -47 28 -47 5 0 -16 -9 -19 -50 -15 -14 1 -22 -1 -18 -6 5 -4
-1 -14 -13 -22 -11 -8 -23 -12 -25 -9 -7 7 33 47 46 47 6 0 10 5 10 10 0 14
-23 12 -39 -2 -10 -11 -12 -9 -9 6 1 10 -3 21 -11 24 -9 3 -11 0 -6 -8 6 -10
4 -12 -8 -7 -20 8 -22 -4 -5 -21 10 -10 10 -15 -2 -22 -32 -21 -43 -12 -37 30
4 29 2 40 -8 40 -7 0 -16 6 -19 13 -3 6 -4 -6 -1 -28 4 -29 3 -36 -4 -25 -6 8
-11 23 -11 33 0 18 -15 23 -24 8 -9 -14 5 -42 16 -35 6 4 8 -2 6 -12 -6 -27
29 -94 49 -94 9 0 14 3 10 6 -9 10 17 32 31 26 7 -2 23 0 35 5 53 25 80 33
105 32 24 0 25 -1 7 -9 -14 -6 -15 -9 -5 -10 8 -1 4 -6 -10 -11 -14 -6 -40 -7
-58 -4 -23 4 -32 3 -27 -5 3 -6 3 -10 -2 -9 -22 4 -66 -2 -60 -8 4 -3 -2 -12
-13 -20 -23 -16 -25 -32 -7 -56 11 -16 15 -16 67 2 83 29 237 43 355 33 74 -7
109 -6 135 3 70 25 147 57 225 95 74 36 111 50 142 56 7 1 24 11 38 22 14 11
42 23 62 27 20 4 42 13 48 22 6 8 23 16 38 16 15 1 27 6 27 10 0 11 -60 3 -87
-12 -27 -14 -36 -14 -28 -1 3 6 3 10 -2 11 -4 0 -16 2 -27 4 -10 2 -29 0 -42
-5 -34 -13 -30 -4 8 14 35 18 41 19 34 8 -3 -5 1 -9 9 -9 11 0 10 5 -2 24 -14
21 -31 34 -19 14z m-258 -156 c12 4 10 1 -6 -9 -28 -17 -54 -22 -30 -5 12 8
11 9 -5 6 -11 -2 -19 -8 -18 -15 2 -6 -4 -9 -12 -6 -8 4 -15 1 -15 -5 0 -8 -5
-9 -19 -1 -11 5 -26 10 -33 10 -7 -1 -3 -6 10 -13 l23 -13 -26 -12 c-33 -15
-48 -15 -39 -1 4 8 -1 9 -17 4 -13 -3 -31 -8 -39 -11 -8 -2 -22 1 -30 7 -13 9
-12 10 2 5 9 -3 36 1 60 9 34 10 38 13 18 15 -17 1 -7 6 29 16 30 8 56 12 58
10 3 -2 16 2 31 10 17 8 28 10 32 3 4 -5 15 -7 26 -4z m-151 -5 c-26 -11 -65
-12 -65 -2 0 4 19 8 43 8 30 1 36 -1 22 -6z m-605 -38 c0 -5 9 -13 21 -18 19
-9 19 -11 6 -22 -13 -11 -18 -8 -30 18 -9 16 -11 30 -6 30 5 0 9 -4 9 -8z
m465 -1 c6 -11 -77 -26 -97 -18 -7 3 5 6 27 7 32 1 36 3 20 10 -17 7 -15 9 12
9 17 1 34 -3 38 -8z m73 -2 c-12 -7 -24 -7 -35 0 -15 9 -12 10 17 10 29 0 32
-1 18 -10z m-68 -29 c-8 -5 -22 -9 -30 -9 -10 0 -8 3 5 9 27 12 43 12 25 0z"/>
<path d="M1338 1503 c7 -3 16 -2 19 1 4 3 -2 6 -13 5 -11 0 -14 -3 -6 -6z"/>
<path d="M1733 1680 c2 -8 13 -14 23 -12 15 3 17 1 7 -9 -20 -20 -15 -31 10
-23 45 14 40 43 -6 40 -12 -1 -26 3 -30 9 -5 6 -7 4 -4 -5z"/>
<path d="M1817 1656 c-4 -10 0 -12 14 -9 10 3 16 9 13 14 -8 13 -21 11 -27 -5z"/>
<path d="M1580 1604 c-14 -8 -17 -13 -7 -10 10 3 25 6 33 6 8 0 14 5 14 10 0
14 -10 12 -40 -6z"/>
<path d="M1440 1580 c-12 -8 -10 -9 7 -7 12 2 26 6 29 10 11 11 -19 8 -36 -3z"/>
<path d="M248 1472 l-248 -107 0 -224 c0 -174 3 -222 13 -218 6 2 159 66 338
142 l327 137 -43 97 c-110 245 -124 276 -132 278 -4 1 -119 -46 -255 -105z"/>
<path d="M1100 1550 c-23 -7 -23 -8 -3 -9 12 -1 25 4 28 9 3 6 5 10 3 9 -2 -1
-14 -5 -28 -9z"/>
<path d="M858 1453 c7 -3 16 -2 19 1 4 3 -2 6 -13 5 -11 0 -14 -3 -6 -6z"/>
<path d="M1231 1123 c-212 -13 -386 -25 -386 -26 -1 -1 2 -51 6 -112 4 -60 9
-138 10 -173 1 -34 5 -65 10 -67 10 -7 589 28 589 35 0 3 -19 13 -42 21 -31
11 -44 22 -46 38 -4 27 24 61 50 61 38 0 18 118 -30 173 -8 9 -13 17 -11 18 2
1 49 5 104 9 55 4 128 13 162 20 35 8 65 11 67 9 3 -3 8 -57 12 -122 4 -74 11
-117 18 -117 8 0 9 31 5 102 -4 57 -7 115 -8 131 -1 27 -2 27 -63 26 -35 -1
-236 -12 -447 -26z m-37 -80 c-18 -27 -24 -49 -24 -90 0 -59 9 -84 47 -124
l24 -26 -53 -6 c-29 -4 -82 -7 -119 -7 -36 0 -69 -4 -75 -9 -5 -5 -30 -12 -56
-16 -57 -9 -54 -15 -63 170 l-7 141 175 1 175 1 -24 -35z m131 -13 c16 0 38
-34 28 -44 -4 -3 -14 1 -24 10 -20 18 -54 15 -54 -6 0 -7 16 -18 35 -23 19 -4
41 -15 49 -22 18 -18 7 -62 -19 -70 -11 -3 -20 -15 -20 -26 0 -10 -4 -19 -10
-19 -5 0 -10 7 -10 15 0 8 -10 20 -22 26 -36 19 -51 49 -24 49 8 0 17 -7 20
-16 8 -21 60 -15 64 8 2 12 -7 20 -36 28 -22 5 -45 17 -52 25 -15 19 -4 52 21
60 10 4 16 11 13 17 -4 6 0 14 7 19 10 6 15 3 17 -11 2 -11 10 -20 17 -20z"/>
<path d="M1007 962 c-20 -22 -22 -43 -5 -60 39 -39 100 17 63 58 -22 25 -37
25 -58 2z"/>
<path d="M1536 994 c-9 -8 -16 -22 -16 -29 0 -18 27 -45 45 -45 18 0 45 27 45
45 0 18 -27 45 -45 45 -7 0 -21 -7 -29 -16z"/>
<path d="M1782 948 c2 -42 6 -53 20 -52 11 1 14 -4 11 -14 -5 -11 -3 -13 7 -7
9 6 11 4 6 -4 -6 -9 -13 -8 -27 5 -13 12 -22 14 -31 7 -7 -6 -29 -9 -50 -7
-23 3 -41 -1 -51 -11 -17 -17 -52 -21 -42 -5 4 6 -6 10 -22 10 -18 0 -23 -3
-15 -8 9 -6 5 -14 -14 -31 -19 -17 -29 -20 -39 -11 -10 8 -15 8 -20 -1 -4 -6
-2 -15 5 -19 8 -5 9 -10 2 -14 -6 -3 -13 0 -15 6 -4 10 -8 9 -16 -2 -8 -12 -5
-16 17 -20 28 -6 -104 -20 -190 -20 -44 0 -48 -2 -44 -22 3 -13 5 -27 5 -31 1
-5 8 -1 17 7 8 9 19 14 23 11 22 -13 68 -28 81 -26 10 2 9 -2 -5 -13 -25 -19
-36 -20 -61 -1 -16 13 -16 14 -1 9 23 -8 22 3 -2 15 -14 8 -20 7 -25 -4 -8
-22 88 -69 113 -55 17 8 19 6 16 -15 -2 -25 20 -54 32 -42 3 4 12 2 19 -4 7
-6 23 -8 35 -4 29 9 109 84 109 101 0 8 6 14 13 14 9 0 8 3 -2 9 -7 5 -23 7
-35 5 -12 -3 -10 0 7 7 21 8 32 8 40 0 20 -20 45 -12 55 18 12 35 41 66 62 66
8 0 17 11 20 25 4 15 12 24 22 22 9 -1 18 4 22 13 8 21 25 19 47 -7 16 -20 18
-21 19 -5 0 11 -4 15 -12 11 -7 -4 -8 -3 -4 5 6 9 11 9 22 0 9 -7 31 -9 60 -5
31 4 43 2 38 -5 -4 -7 4 -9 22 -7 15 2 29 8 31 14 5 14 -51 35 -63 25 -5 -4
-25 -4 -44 0 -21 4 -27 7 -15 9 15 2 12 4 -10 9 -16 4 -32 6 -34 5 -9 -7 29
-33 55 -37 l29 -4 -32 -2 c-17 0 -35 4 -38 10 -4 6 -13 8 -20 5 -7 -2 -18 1
-24 7 -6 6 -11 7 -11 2 0 -5 -11 2 -25 15 -45 43 -19 85 27 43 10 -9 18 -11
18 -5 0 14 -58 62 -76 62 -12 0 -14 -12 -12 -52z m8 -91 c0 -7 -4 -6 -10 3 -9
14 -11 13 -14 -9 0 -5 -18 -26 -39 -46 -20 -20 -35 -40 -32 -45 3 -4 -2 -11
-11 -14 -8 -3 -12 -2 -9 4 3 6 -1 7 -9 4 -9 -3 -14 -10 -11 -15 5 -7 -83 18
-93 27 -2 1 6 8 19 14 19 11 21 10 16 -4 -4 -11 -3 -15 4 -10 6 4 14 1 18 -5
5 -8 14 -8 34 2 35 16 34 25 -3 19 -18 -3 -30 0 -30 7 0 6 9 11 20 11 11 0 20
5 20 11 0 8 -12 10 -35 6 -19 -3 -35 -2 -35 4 0 8 45 14 78 10 7 -1 12 2 11 6
-3 19 2 33 12 33 5 0 7 -6 3 -12 -6 -10 -4 -10 8 0 10 8 17 9 20 3 2 -7 12 -6
28 3 27 14 40 12 40 -7z m255 3 c3 -5 1 -10 -4 -10 -6 0 -11 5 -11 10 0 6 2
10 4 10 3 0 8 -4 11 -10z m-475 -160 c12 -7 8 -11 -17 -16 -24 -5 -33 -12 -33
-27 0 -19 1 -19 18 -4 18 17 42 23 42 11 0 -10 -28 -34 -39 -34 -6 0 -11 -7
-11 -15 0 -8 -7 -15 -16 -15 -9 0 -12 -5 -8 -12 6 -10 4 -10 -8 0 -8 7 -22 10
-31 6 -13 -5 -15 2 -13 35 4 54 22 74 58 67 15 -3 28 -1 28 4 0 12 11 12 30 0z
m-127 -20 c-10 -11 -18 -20 -19 -20 -1 0 0 9 3 20 3 11 12 20 19 20 11 0 10
-5 -3 -20z"/>
<path d="M1458 875 c2 -14 8 -22 13 -19 5 3 9 1 9 -4 0 -12 -27 -23 -33 -14
-2 4 -2 1 -1 -5 2 -7 -2 -13 -9 -13 -6 0 -1 -7 12 -16 21 -15 24 -15 39 1 16
16 15 17 -8 11 -23 -6 -23 -6 -7 7 9 8 17 24 17 36 0 28 21 23 35 -7 12 -27
40 -25 40 3 0 38 -79 63 -88 28 -4 -17 -5 -17 -6 0 0 9 -5 17 -10 17 -4 0 -6
-11 -3 -25z"/>
<path d="M1506 843 c-6 -14 -5 -15 5 -6 7 7 10 15 7 18 -3 3 -9 -2 -12 -12z"/>
<path d="M2080 820 c0 -5 5 -10 11 -10 5 0 7 5 4 10 -3 6 -8 10 -11 10 -2 0
-4 -4 -4 -10z"/>
<path d="M2084 789 c-3 -5 -3 -13 0 -17 3 -5 -6 -15 -19 -22 -14 -7 -25 -19
-25 -27 0 -7 -5 -13 -10 -13 -6 0 -16 -11 -22 -25 -13 -28 -35 -32 -52 -10 -8
10 -15 12 -26 5 -13 -9 -13 -11 0 -19 8 -5 18 -7 23 -4 5 3 8 0 5 -8 -2 -8
-14 -18 -26 -24 -12 -5 -21 -14 -18 -20 6 -17 -77 -11 -104 7 -24 17 -24 18
-5 33 20 14 20 14 -2 15 -13 0 -23 -4 -23 -10 0 -5 -5 -10 -11 -10 -6 0 -9 9
-6 20 4 16 0 20 -19 20 -14 0 -24 -6 -24 -14 0 -8 -6 -17 -12 -19 -8 -3 -6 -6
5 -6 36 -2 15 -21 -23 -21 -23 0 -52 -7 -65 -16 -14 -9 -32 -14 -40 -10 -8 3
-15 1 -15 -4 0 -5 24 -13 53 -19 61 -12 150 -22 125 -15 -10 3 -18 9 -18 14 0
5 -16 7 -35 5 -20 -2 -48 1 -63 5 l-27 8 27 1 c15 1 30 6 33 11 3 6 14 10 23
10 13 -1 10 -5 -8 -16 -19 -11 -21 -14 -5 -10 62 14 89 17 75 7 -12 -9 -11
-11 8 -11 13 0 20 4 17 10 -3 6 2 10 11 10 16 0 16 -1 0 -19 -20 -22 -4 -40
18 -22 10 9 15 8 20 -4 4 -12 22 -15 80 -15 41 0 87 -5 102 -10 15 -6 29 -8
33 -5 10 10 -41 43 -77 50 -19 3 -30 10 -26 16 3 6 15 9 25 6 11 -3 17 -2 15
2 -7 10 31 41 49 41 9 0 12 6 8 16 -3 9 3 21 16 30 11 8 21 21 21 27 0 7 9 21
21 30 15 13 18 21 10 31 -8 9 -7 13 4 13 8 0 11 -5 8 -10 -4 -6 -1 -7 6 -3 7
5 10 11 6 14 -10 10 -35 11 -41 1z m-214 -219 c-19 -13 -30 -13 -30 0 0 6 10
10 23 10 18 0 19 -2 7 -10z m110 -10 c19 -6 14 -7 -22 -6 -27 0 -48 4 -48 9 0
9 37 8 70 -3z"/>
<path d="M2117 763 c-4 -3 -7 -13 -7 -21 0 -12 3 -12 15 -2 8 7 15 16 15 21 0
11 -14 12 -23 2z"/>
<path d="M2154 723 c4 -9 3 -19 -2 -22 -5 -3 -12 -19 -15 -36 -6 -25 -3 -23
18 15 29 54 30 60 9 60 -11 0 -14 -5 -10 -17z"/>
<path d="M2272 698 c-11 -24 -47 -100 -81 -169 -34 -70 -61 -131 -61 -136 0
-5 71 -41 158 -81 86 -39 192 -87 235 -106 l77 -35 0 215 0 215 -134 64 c-183
86 -171 84 -194 33z"/>
<path d="M2102 679 c-8 -12 -9 -18 -3 -14 6 3 11 -1 11 -10 0 -10 -6 -15 -13
-12 -8 3 -21 -7 -31 -24 -15 -25 -15 -29 -2 -29 16 0 31 -18 23 -26 -3 -3 -24
4 -46 14 -23 11 -41 16 -41 12 0 -5 9 -11 19 -15 10 -3 26 -20 34 -37 l15 -31
21 41 c19 38 19 46 1 44 -3 0 -7 8 -7 19 -2 17 0 18 13 4 19 -19 20 -19 28 1
4 10 2 13 -6 8 -8 -5 -9 -2 -4 12 11 27 16 64 8 64 -4 0 -13 -9 -20 -21z"/>
<path d="M1826 632 c-8 -7 27 -31 36 -26 5 3 8 9 8 13 0 10 -37 21 -44 13z"/>
<path d="M1410 620 c0 -5 5 -10 10 -10 6 0 10 5 10 10 0 6 -4 10 -10 10 -5 0
-10 -4 -10 -10z"/>
<path d="M1607 619 c7 -7 15 -10 18 -7 3 3 -2 9 -12 12 -14 6 -15 5 -6 -5z"/>
</g>
</svg>
