<?xml version="1.0" standalone="no"?>
<!DOCTYPE svg PUBLIC "-//W3C//DTD SVG 20010904//EN"
 "http://www.w3.org/TR/2001/REC-SVG-20010904/DTD/svg10.dtd">
<svg version="1.0" xmlns="http://www.w3.org/2000/svg"
 width="484.000000pt" height="484.000000pt" viewBox="0 0 484.000000 484.000000"
 preserveAspectRatio="xMidYMid meet">
<metadata>
Created by potrace 1.14, written by Peter Selinger 2001-2017
</metadata>
<g transform="translate(0.000000,484.000000) scale(0.100000,-0.100000)"
fill="#000000" stroke="none">
<path d="M0 3778 l1 -1063 24 45 c88 167 146 218 262 229 129 14 287 -18 958
-193 278 -73 959 -241 1008 -250 4 0 19 31 33 69 56 161 146 320 246 436 45
53 48 60 48 112 0 53 -15 189 -26 232 -4 16 -3 17 4 5 16 -25 35 -160 35 -252
1 -48 5 -84 10 -79 11 11 15 179 5 216 -5 17 -11 53 -14 80 -5 57 -38 135 -57
135 -15 -1 -47 -24 -47 -35 0 -4 -8 -15 -18 -24 -10 -9 -28 -29 -40 -45 -12
-16 -22 -25 -22 -21 0 4 -14 -12 -32 -36 -43 -61 -84 -99 -107 -99 -10 0 -22
-7 -25 -16 -3 -9 -13 -13 -23 -10 -10 3 -63 6 -118 7 -55 1 -114 6 -131 11
-27 7 -74 14 -120 17 -7 1 -15 12 -18 26 -8 31 -26 33 -26 2 0 -13 -9 -33 -19
-44 -11 -12 -17 -24 -14 -27 4 -3 -2 -6 -13 -6 -11 0 -30 -7 -42 -16 -37 -26
-44 -12 -17 38 14 26 25 56 25 67 0 11 5 23 10 26 6 4 8 10 5 15 -3 4 2 10 10
14 8 3 15 15 15 26 0 12 4 19 8 16 5 -3 4 10 -2 30 -8 24 -15 33 -26 29 -8 -4
-60 -10 -116 -15 -150 -13 -204 -22 -204 -31 0 -5 -5 -9 -11 -9 -13 0 -5 70
12 101 5 11 37 27 78 39 l68 21 7 52 c3 29 6 74 6 100 0 27 5 57 10 68 12 22
62 26 79 6 21 -26 42 -102 47 -177 5 -55 13 -84 29 -110 13 -19 31 -59 40 -87
17 -51 19 -54 69 -68 30 -10 110 -18 197 -22 l146 -6 108 124 c161 185 206
217 340 240 82 14 105 24 105 46 0 15 2 14 14 -2 13 -18 14 -18 23 0 7 12 6
26 -2 44 -7 14 -16 49 -19 76 -6 48 -5 51 23 68 50 29 57 24 59 -42 1 -33 11
-84 22 -113 29 -78 68 -98 186 -98 49 0 132 -7 184 -15 227 -35 358 -61 374
-74 22 -18 20 -73 -4 -104 l-20 -25 68 -12 c146 -25 341 -106 472 -197 340
-237 576 -594 674 -1023 l25 -105 0 972 1 973 -27 5 c-16 3 -44 14 -63 24 -19
11 -67 27 -105 36 -39 10 -86 26 -105 35 -20 10 -54 22 -75 25 -37 7 -196 65
-320 116 -27 12 -70 26 -94 31 -25 6 -65 22 -90 36 -45 25 -67 31 -199 52 -34
5 -88 19 -120 29 -31 10 -102 33 -157 50 -133 41 -140 47 -76 58 l53 8 -69 29
c-37 16 -90 39 -118 51 -65 29 -128 50 -139 47 -4 -2 -13 4 -20 11 -6 8 -49
27 -96 43 -47 16 -90 34 -97 40 -6 6 -26 17 -45 23 -18 7 -54 22 -80 32 -45
18 -95 19 -1422 19 l-1376 0 0 -1062z m1776 1037 c10 -8 25 -15 32 -15 6 0 36
-11 65 -25 41 -20 78 -28 172 -35 66 -6 131 -14 145 -20 47 -19 263 -70 294
-70 17 0 38 4 46 10 12 7 11 10 -5 15 -11 3 -42 15 -70 26 -27 12 -59 23 -70
26 -11 3 -37 9 -59 15 -49 12 -42 18 31 24 42 3 64 0 78 -10 20 -15 20 -15 0
-17 -11 -1 5 -5 35 -10 86 -12 123 -20 145 -29 11 -5 54 -11 95 -13 87 -6 146
-26 211 -74 26 -18 52 -33 59 -33 7 0 26 -6 43 -14 18 -8 43 -17 57 -19 14 -2
4 -5 -22 -6 -27 0 -48 -4 -48 -7 0 -3 12 -26 26 -50 15 -25 32 -64 39 -87 12
-40 14 -42 61 -49 90 -13 115 -19 109 -28 -3 -5 -39 -6 -80 -3 -70 6 -75 5
-75 -14 0 -18 9 -21 93 -29 50 -5 104 -8 119 -6 15 1 30 -3 33 -8 3 -6 21 -10
38 -10 29 1 26 3 -22 20 -30 11 -60 25 -65 31 -8 9 -6 10 9 4 11 -4 27 -9 35
-11 8 -2 60 -14 115 -28 55 -13 128 -27 163 -31 36 -4 62 -12 62 -18 0 -8 22
-13 58 -14 31 -2 71 -7 87 -12 l30 -9 -35 -2 c-32 -2 -30 -3 20 -15 l55 -13
-40 -2 c-22 -1 -49 -5 -60 -9 -16 -7 -14 -9 14 -14 19 -4 59 -7 91 -7 32 0 91
-7 131 -15 41 -8 121 -21 179 -29 100 -14 171 -33 187 -51 5 -4 -64 -5 -152
-2 -157 5 -155 -5 5 -19 36 -3 69 -10 74 -15 6 -5 32 -9 58 -9 46 0 61 -11 37
-26 -10 -6 -293 -6 -559 1 -146 3 -560 34 -610 45 -25 5 -92 14 -149 19 l-104
10 -33 -35 c-46 -46 -64 -44 -20 4 75 81 81 90 77 115 0 4 3 7 9 7 6 0 6 9 -1
23 -10 22 -27 26 -69 18 -3 -1 -17 -12 -31 -25 -25 -23 -35 -25 -145 -26 -132
-2 -157 0 -164 10 -12 18 -125 71 -128 61 -2 -7 -13 -4 -29 9 -14 11 -34 20
-44 20 -11 0 -19 7 -19 18 -1 13 -4 12 -14 -7 -10 -18 -15 -21 -20 -10 -5 13
-4 -2 8 -66 14 -78 98 -158 217 -206 80 -33 52 -31 -36 2 -60 22 -153 100
-190 159 -17 27 -29 35 -54 36 -32 2 -202 17 -211 19 -3 1 -21 5 -40 9 -19 5
-39 12 -45 16 -10 8 -84 30 -120 36 -11 2 -47 8 -80 13 -33 6 -100 14 -150 17
-49 3 -97 8 -105 11 -8 3 -53 9 -100 14 -77 7 -135 15 -353 49 -65 10 -144 30
-195 51 -13 5 -42 9 -66 9 -24 0 -63 7 -86 15 -23 8 -68 15 -99 15 -70 0 -126
15 -152 41 -28 28 -16 38 33 28 24 -4 73 -8 110 -9 37 0 79 -5 95 -12 15 -6
98 -14 183 -18 152 -7 235 -17 395 -45 44 -8 96 -15 115 -16 19 0 78 -7 130
-14 52 -8 129 -18 170 -24 100 -14 464 -52 517 -54 24 -1 43 -6 44 -12 2 -14
18 65 18 91 1 11 -5 21 -11 21 -25 2 -414 84 -470 100 -32 9 -58 20 -58 26 0
5 8 6 18 2 9 -3 67 -11 127 -16 61 -5 122 -11 137 -13 19 -3 25 0 22 9 -8 19
11 26 41 15 14 -5 52 -15 83 -20 31 -6 76 -14 100 -19 41 -8 44 -7 59 22 8 17
38 55 66 84 47 49 48 53 26 54 -40 3 -53 5 -69 11 -76 28 -227 62 -326 73 -67
7 -130 18 -140 23 -11 6 -47 20 -82 32 -34 13 -65 27 -68 31 -3 5 -16 9 -30 9
-14 0 -22 4 -19 10 9 15 38 12 61 -5z m900 -9 c27 -13 60 -26 74 -29 34 -8
121 -40 140 -52 8 -6 40 -15 70 -22 81 -16 141 -41 165 -67 17 -18 44 -27 123
-41 56 -10 102 -22 102 -27 0 -12 -89 -9 -205 6 -103 14 -155 32 -147 54 2 8
-10 12 -39 12 -23 0 -61 9 -85 20 -24 11 -64 29 -88 40 -24 11 -49 20 -57 20
-8 0 -26 11 -41 25 -18 17 -39 25 -62 25 -20 0 -51 8 -71 17 l-36 17 43 12
c61 16 59 16 114 -10z m-1413 -53 c-13 -2 -33 -2 -45 0 -13 2 -3 4 22 4 25 0
35 -2 23 -4z m222 -59 c33 -9 78 -20 100 -24 64 -13 185 -54 185 -64 0 -4 -8
-5 -17 -1 -10 4 -56 15 -103 25 -47 9 -107 25 -133 34 -26 9 -58 16 -70 16
-33 0 -67 11 -67 21 0 14 39 11 105 -7z m542 -170 c-3 -3 -12 -4 -19 -1 -8 3
-5 6 6 6 11 1 17 -2 13 -5z m1273 -30 c153 -40 166 -44 236 -53 37 -6 70 -14
73 -20 4 -5 30 -13 59 -17 56 -7 81 -24 35 -24 -77 1 -216 20 -283 39 -216 62
-282 84 -271 90 21 13 59 9 151 -15z m503 -261 c-7 -2 -21 -2 -30 0 -10 3 -4
5 12 5 17 0 24 -2 18 -5z m-1110 -330 c-7 -2 -19 -2 -25 0 -7 3 -2 5 12 5 14
0 19 -2 13 -5z m-1020 -513 c32 -14 46 -27 49 -45 3 -14 1 -28 -3 -31 -5 -3
-9 3 -10 13 0 14 -2 13 -9 -5 -5 -12 -32 -37 -60 -54 -27 -17 -47 -34 -45 -38
3 -4 -21 -17 -52 -28 -41 -15 -60 -18 -70 -10 -7 5 -19 8 -27 5 -8 -3 -19 0
-24 6 -15 18 -22 87 -14 132 7 37 11 41 57 57 69 24 152 23 208 -2z m154 -196
c-3 -3 -12 -4 -19 -1 -8 3 -5 6 6 6 11 1 17 -2 13 -5z"/>
<path d="M3074 4188 c-10 -15 0 -19 101 -35 65 -10 104 -12 118 -6 17 8 4 13
-68 26 -134 24 -145 25 -151 15z"/>
<path d="M3027 4173 c-4 -3 -7 -11 -7 -17 0 -6 5 -5 12 2 6 6 9 14 7 17 -3 3
-9 2 -12 -2z"/>
<path d="M3708 4133 c7 -3 16 -2 19 1 4 3 -2 6 -13 5 -11 0 -14 -3 -6 -6z"/>
<path d="M2810 4710 c0 -6 7 -10 15 -10 8 0 15 2 15 4 0 2 -7 6 -15 10 -8 3
-15 1 -15 -4z"/>
<path d="M1476 3205 c4 -8 11 -15 16 -15 6 0 5 6 -2 15 -7 8 -14 15 -16 15 -2
0 -1 -7 2 -15z"/>
<path d="M3190 4828 c34 -14 110 -37 110 -33 0 12 -77 45 -103 44 -32 0 -32 0
-7 -11z"/>
<path d="M3470 4831 c45 -7 93 -28 142 -62 14 -11 34 -19 45 -19 10 0 26 -7
36 -14 17 -13 16 -15 -12 -21 -31 -7 -34 -25 -4 -25 9 0 24 -6 32 -14 9 -8 31
-18 50 -23 19 -5 36 -13 38 -19 4 -12 -21 -15 -102 -15 l-60 0 50 -24 c77 -36
136 -61 180 -75 22 -7 45 -17 51 -21 6 -5 36 -16 65 -25 30 -9 63 -21 74 -28
11 -7 36 -16 56 -20 21 -3 42 -13 48 -20 7 -8 24 -17 39 -21 50 -12 227 -77
302 -112 41 -19 104 -46 139 -59 36 -13 70 -29 76 -34 17 -14 125 -49 125 -40
0 13 -35 38 -100 70 -36 18 -67 36 -70 39 -3 4 -36 22 -75 40 -38 18 -86 48
-106 66 -44 40 -80 52 -184 60 -97 8 -156 21 -212 46 -24 10 -46 19 -51 19 -9
0 -162 68 -211 94 -26 14 -31 20 -20 27 33 21 93 8 213 -45 66 -29 139 -59
161 -67 22 -7 46 -17 53 -23 7 -5 15 -6 18 -3 3 3 -8 13 -24 21 -46 24 -47 35
-2 30 22 -3 40 -3 40 -1 0 3 -25 17 -56 31 -31 15 -71 37 -88 50 -17 13 -40
27 -51 31 -15 6 -6 10 39 17 67 11 99 5 124 -20 10 -10 42 -28 72 -41 30 -13
66 -31 80 -41 33 -24 87 -45 132 -54 20 -3 39 -13 42 -21 3 -8 10 -15 16 -15
6 0 9 4 6 9 -3 5 4 11 15 14 12 3 18 10 15 16 -10 16 -68 41 -79 34 -6 -3 -7
-1 -3 5 4 6 -6 18 -24 27 -16 8 -30 20 -30 25 0 6 -6 10 -13 10 -8 0 -24 11
-37 25 -13 14 -27 25 -32 25 -5 0 -26 11 -48 25 -22 14 -55 25 -73 25 -18 0
-55 7 -82 17 -56 19 -180 86 -211 115 -16 14 -33 18 -60 16 l-39 -3 38 -22
c20 -12 37 -29 37 -38 0 -9 9 -15 21 -15 15 0 19 -5 15 -15 -4 -10 8 -21 41
-36 44 -20 46 -22 28 -35 -11 -8 -44 -14 -79 -14 -60 0 -81 8 -141 55 -11 8
-56 39 -100 68 l-80 52 -120 2 c-78 1 -104 -1 -75 -6z m350 -141 c3 -4 12 -10
20 -14 8 -3 -10 -4 -40 -2 -31 2 -71 11 -90 19 -34 14 -34 14 35 9 39 -3 72
-8 75 -12z m775 -200 c13 -6 15 -9 5 -9 -8 0 -22 4 -30 9 -18 12 -2 12 25 0z"/>
<path d="M4286 4826 c3 -8 13 -17 22 -21 13 -5 13 -2 -3 15 -21 24 -26 25 -19
6z"/>
<path d="M4498 4804 c29 -20 52 -41 52 -46 0 -5 -14 -11 -31 -15 l-31 -6 33
-15 34 -16 -35 -4 -35 -4 40 -18 c22 -11 54 -31 70 -46 17 -14 47 -37 68 -50
20 -14 46 -32 57 -42 12 -9 43 -27 71 -39 l50 -22 -2 169 c-1 98 -5 170 -11
170 -5 0 -6 5 -3 10 4 6 -21 10 -67 10 -79 -1 -78 1 -14 -46 23 -16 16 -26
-18 -26 -14 0 -38 14 -60 36 l-37 36 -91 0 -92 0 52 -36z m102 -68 c0 -3 -4
-8 -10 -11 -5 -3 -10 -1 -10 4 0 6 5 11 10 11 6 0 10 -2 10 -4z"/>
<path d="M3315 4780 c3 -5 14 -10 23 -10 15 0 15 2 2 10 -20 13 -33 13 -25 0z"/>
<path d="M4346 4775 c4 -8 15 -20 26 -26 11 -6 17 -17 14 -25 -4 -11 4 -14 35
-14 l41 0 -53 35 c-28 20 -56 38 -60 41 -5 3 -6 -2 -3 -11z"/>
<path d="M3423 4733 c9 -2 23 -2 30 0 6 3 -1 5 -18 5 -16 0 -22 -2 -12 -5z"/>
<path d="M3488 4528 c5 -5 16 -8 23 -6 8 3 3 7 -10 11 -17 4 -21 3 -13 -5z"/>
<path d="M4624 4468 c-5 -7 -2 -9 8 -5 9 3 22 0 29 -6 11 -10 11 -9 0 6 -16
20 -27 22 -37 5z"/>
<path d="M4825 4460 c-3 -5 -1 -10 4 -10 6 0 11 5 11 10 0 6 -2 10 -4 10 -3 0
-8 -4 -11 -10z"/>
<path d="M4278 4443 c6 -2 18 -2 25 0 6 3 1 5 -13 5 -14 0 -19 -2 -12 -5z"/>
<path d="M1608 3633 c6 -2 18 -2 25 0 6 3 1 5 -13 5 -14 0 -19 -2 -12 -5z"/>
<path d="M3285 3539 c-16 -5 -43 -10 -58 -11 -16 -1 -31 -6 -33 -10 -3 -5 -10
-6 -15 -3 -5 4 -9 1 -9 -5 0 -6 -4 -8 -10 -5 -5 3 -10 1 -10 -4 0 -6 -10 -11
-22 -11 -13 0 -34 -12 -47 -26 -15 -15 -32 -24 -43 -21 -10 3 -21 1 -24 -4 -3
-5 1 -9 8 -9 7 0 2 -6 -11 -13 -13 -6 -22 -14 -21 -17 4 -7 -91 -100 -102
-100 -4 0 -8 -9 -8 -21 0 -13 -8 -23 -21 -26 -15 -4 -17 -8 -7 -14 10 -7 9
-14 -5 -38 -9 -16 -19 -56 -21 -88 -2 -32 -5 -58 -6 -58 -11 0 -19 -437 -9
-530 3 -27 1 -67 -4 -88 -8 -29 -6 -41 5 -55 15 -17 23 -86 9 -78 -4 3 -7 -12
-8 -32 0 -20 -3 -44 -6 -52 -4 -8 -11 -43 -17 -78 -14 -79 -77 -305 -131 -465
-51 -153 -82 -187 -143 -162 -16 7 -18 5 -14 -18 3 -15 2 -25 -1 -23 -10 6
-31 -21 -23 -29 4 -4 -3 -2 -16 4 -19 10 -23 10 -20 -1 4 -21 -22 -60 -37 -54
-8 3 -12 0 -9 -8 2 -6 -12 -31 -33 -54 -68 -75 -79 -89 -76 -99 2 -6 -3 -16
-12 -23 -8 -7 -15 -21 -15 -31 0 -10 -4 -20 -9 -23 -5 -3 -11 -20 -13 -37 -4
-22 1 -36 15 -50 20 -18 20 -19 2 -39 -19 -21 -55 -21 -81 1 -20 16 -18 -5 2
-26 9 -8 35 -25 58 -37 22 -11 42 -22 44 -23 2 -2 -6 -22 -17 -46 -11 -24 -22
-62 -26 -84 -3 -24 -15 -49 -30 -62 -13 -12 -29 -30 -37 -40 -14 -20 -62 -53
-76 -53 -11 0 -33 72 -37 122 -2 18 -4 87 -5 153 l-1 120 -37 16 c-53 23 -116
52 -287 131 -82 39 -170 79 -195 90 -25 10 -54 23 -65 28 -105 48 -485 210
-490 210 -3 0 -28 11 -57 24 -29 13 -98 42 -153 64 -137 55 -290 119 -350 146
-124 56 -394 166 -409 166 -3 0 -6 -42 -6 -94 l0 -94 29 -5 c26 -6 91 -34 146
-64 32 -18 235 -113 241 -113 3 0 24 -13 47 -28 58 -38 78 -50 105 -62 12 -5
27 -20 32 -32 8 -21 9 -21 10 -3 1 17 2 18 13 5 7 -8 19 -16 27 -18 8 -2 19
-10 23 -18 4 -8 15 -14 23 -14 8 0 12 -4 9 -10 -3 -5 6 -12 20 -16 14 -3 25
-9 25 -13 0 -4 19 -18 42 -31 24 -13 49 -30 56 -37 8 -8 42 -27 76 -43 34 -16
68 -36 75 -44 8 -9 20 -16 27 -16 8 0 14 -4 14 -9 0 -5 13 -12 29 -16 16 -3
35 -13 42 -21 6 -8 17 -14 23 -14 14 -1 130 -58 181 -91 22 -14 48 -28 57 -32
16 -6 15 -11 -12 -54 -34 -53 -61 -74 -68 -53 -3 8 -15 24 -28 37 -13 13 -42
55 -64 94 l-42 71 -126 59 c-70 33 -136 65 -147 72 -85 47 -105 46 -105 -6 l0
-34 -84 40 c-78 37 -85 43 -107 90 -21 45 -31 54 -88 79 -35 16 -65 27 -68 25
-4 -5 13 -39 74 -142 115 -195 274 -384 361 -429 18 -9 32 -18 32 -21 0 -7
-10 -3 -490 242 -207 104 -215 111 -355 288 -21 28 -43 54 -47 59 -4 6 -8
-310 -8 -702 l0 -712 590 0 c547 0 592 1 623 18 55 30 152 96 160 110 6 9 21
11 45 8 34 -5 35 -4 19 8 -18 14 -15 18 44 61 37 27 70 44 81 42 9 -3 18 -2
20 2 2 3 21 19 43 35 22 17 44 36 48 43 4 7 15 13 22 13 36 0 8 33 -65 77 -73
44 -95 63 -71 63 6 0 13 -5 16 -10 6 -10 86 -55 128 -72 22 -9 -1 20 -101 127
-35 38 -72 81 -80 95 -9 14 -21 28 -27 32 -13 10 22 35 60 43 24 4 27 8 15 15
-12 7 -12 12 -2 22 19 19 14 31 -11 26 l-24 -5 25 39 c19 29 32 38 53 38 36 0
59 -9 59 -24 -1 -18 -39 -58 -50 -51 -5 3 -10 2 -10 -3 0 -5 11 -12 25 -14 17
-4 25 -1 25 8 0 8 5 14 10 14 6 0 10 -14 10 -31 0 -16 6 -51 14 -77 45 -156
72 -232 97 -281 26 -50 27 -56 13 -72 -9 -10 -13 -22 -10 -27 3 -5 -4 -12 -16
-15 -13 -4 -26 -1 -30 6 -5 7 -8 2 -8 -15 0 -28 -35 -62 -53 -51 -6 3 -15 0
-21 -8 -20 -25 -128 -81 -161 -83 -11 -1 -19 -7 -18 -13 2 -7 -12 -22 -30 -35
-17 -12 -33 -26 -35 -30 -2 -4 -10 -8 -18 -8 -8 0 -14 -4 -14 -10 0 -6 111
-10 314 -10 l314 0 16 25 c9 14 21 23 26 20 5 -3 10 4 12 16 5 33 32 46 62 29
29 -15 67 -76 41 -66 -9 3 -12 0 -8 -10 4 -12 183 -14 1339 -14 l1334 0 0 529
c0 414 -3 530 -12 534 -10 4 -10 6 0 6 9 1 12 47 12 196 0 167 -2 195 -15 195
-8 0 -15 -8 -15 -18 0 -34 -71 -217 -121 -311 -28 -53 -73 -125 -99 -161 -152
-204 -443 -404 -685 -470 -113 -31 -354 -39 -480 -15 -236 44 -450 153 -647
329 -68 60 -98 81 -98 69 0 -10 9 -61 20 -113 28 -134 27 -146 -18 -190 -32
-32 -58 -44 -168 -79 -123 -39 -253 -69 -281 -65 -7 1 -26 2 -41 3 -46 2 -65
22 -67 74 0 26 1 44 4 42 2 -3 10 8 17 24 13 32 78 77 187 131 37 18 67 37 67
41 0 5 15 26 33 46 46 51 90 165 53 134 -15 -12 -92 -18 -103 -8 -3 3 -8 26
-10 52 -3 25 -9 45 -12 45 -7 0 2 112 14 176 3 17 16 41 29 53 26 25 29 23 67
-48 48 -88 46 -88 52 -4 6 81 26 135 61 165 12 10 24 17 27 18 3 0 11 -33 17
-72 9 -64 10 -53 5 82 -5 152 -4 156 25 240 72 205 137 441 148 533 4 31 10
57 15 57 4 0 17 -21 28 -46 11 -25 25 -43 30 -40 5 3 14 -7 21 -23 6 -16 30
-44 53 -62 l42 -34 -22 30 c-41 59 -117 255 -93 240 5 -3 11 25 14 62 3 38 13
108 21 158 13 84 13 131 0 69 -11 -48 -14 -56 -25 -49 -6 4 -6 15 0 31 6 14 7
30 4 36 -4 6 0 14 7 19 7 4 10 12 5 16 -4 4 -13 0 -20 -10 -21 -27 -37 -21
-30 11 4 15 10 32 14 37 4 6 6 30 3 55 -4 48 12 100 31 100 6 0 12 12 13 27 0
15 6 29 12 31 6 2 11 8 11 14 0 6 11 26 25 44 14 18 25 36 25 39 0 4 7 13 15
21 8 9 15 24 15 35 0 28 18 59 34 59 9 0 13 -8 10 -22 -2 -13 5 4 16 37 28 86
40 183 23 189 -8 4 -13 -3 -13 -18 0 -32 -28 -55 -41 -35 -8 11 -9 10 -8 -6 3
-28 -23 -86 -28 -64 -6 25 35 137 68 185 16 23 29 45 29 47 0 6 47 55 78 81
12 10 52 29 89 42 65 21 71 32 8 13z m-222 -436 c-7 -2 -19 -2 -25 0 -7 3 -2
5 12 5 14 0 19 -2 13 -5z m-574 -1816 c-1 -31 -1 -31 -9 -7 -11 36 -11 52 0
45 6 -3 10 -21 9 -38z m-1497 -169 c12 -24 22 -56 23 -73 0 -23 5 -30 19 -30
10 0 24 -9 30 -20 6 -11 15 -23 19 -26 5 -3 16 -18 25 -32 9 -14 28 -39 40
-56 13 -18 20 -31 15 -30 -21 4 -33 -2 -33 -16 0 -8 6 -15 13 -15 6 -1 -6 -7
-28 -15 -46 -17 -95 -19 -95 -5 0 5 -7 7 -15 4 -8 -4 -12 -10 -9 -15 3 -5 0
-9 -5 -9 -7 0 -9 15 -6 36 2 20 -2 48 -9 63 -20 39 -29 124 -21 207 4 41 8 74
11 74 2 0 14 -19 26 -42z m-195 -89 c7 -24 12 -48 10 -53 -3 -8 -107 127 -107
139 0 3 19 -5 42 -18 35 -19 45 -32 55 -68z m800 -135 c-3 -3 -12 -4 -19 -1
-8 3 -5 6 6 6 11 1 17 -2 13 -5z m-501 -136 c4 -6 3 -8 -4 -4 -5 3 -12 1 -14
-6 -3 -7 -12 -9 -23 -4 -16 6 -17 9 -5 16 20 13 37 12 46 -2z m54 -12 c0 -2
-7 -9 -15 -16 -13 -11 -14 -10 -9 4 5 14 24 23 24 12z m810 -55 c20 -21 42
-35 49 -33 6 2 21 -4 32 -14 12 -11 19 -13 19 -5 0 7 5 9 10 6 6 -3 7 -17 4
-30 -3 -12 -1 -26 4 -29 6 -4 8 2 5 14 -6 24 3 26 25 3 12 -12 13 -18 4 -21
-7 -2 -10 -13 -6 -29 4 -16 2 -28 -7 -34 -12 -8 -12 -11 1 -22 8 -6 16 -19 17
-27 5 -46 22 -112 32 -124 8 -9 8 -16 2 -20 -6 -4 -8 -13 -4 -21 6 -16 -22
-21 -31 -6 -3 5 -15 11 -26 14 -13 3 -18 1 -13 -6 4 -6 0 -8 -10 -4 -21 8 -22
0 -2 -19 10 -10 29 -13 62 -10 26 2 40 2 31 -1 -10 -2 -18 -11 -18 -20 0 -10
-6 -13 -16 -9 -14 5 -15 4 -4 -8 19 -24 7 -39 -33 -43 -29 -3 -39 0 -44 14 -4
10 -19 30 -35 45 -20 19 -28 37 -28 62 0 18 -6 36 -12 39 -13 4 -34 65 -44
122 -2 17 -9 54 -15 84 -9 43 -8 55 3 62 10 7 10 11 1 17 -6 4 -14 21 -18 37
-4 17 -9 38 -12 48 -8 30 36 12 77 -32z m-810 24 c-7 -8 -17 -15 -23 -15 -6 0
-2 7 9 15 25 19 30 19 14 0z m268 -120 c-3 -3 -9 2 -12 12 -6 14 -5 15 5 6 7
-7 10 -15 7 -18z m92 -91 c15 -18 14 -18 -10 -3 -14 9 -34 32 -44 50 l-19 34
29 -31 c16 -17 36 -39 44 -50z m650 -90 c0 -8 -4 -12 -10 -9 -5 3 -10 10 -10
16 0 5 5 9 10 9 6 0 10 -7 10 -16z m-130 -204 c0 -5 -4 -10 -10 -10 -5 0 -10
5 -10 10 0 6 5 10 10 10 6 0 10 -4 10 -10z"/>
<path d="M3045 3471 c-6 -11 9 -23 19 -14 9 9 7 23 -3 23 -6 0 -12 -4 -16 -9z"/>
<path d="M3526 3452 c-2 -4 0 -18 5 -31 9 -23 10 -23 29 -6 11 10 17 21 15 25
-7 11 -44 19 -49 12z"/>
<path d="M3514 3238 c-9 -14 13 -26 56 -33 50 -8 112 -21 135 -29 18 -7 19 -7
2 4 -37 24 -187 69 -193 58z"/>
<path d="M3208 3178 c10 -13 -15 -157 -42 -238 -12 -36 -33 -45 -68 -28 -14 6
-16 5 -12 -7 7 -17 47 -30 63 -21 6 4 21 0 33 -8 13 -8 34 -16 48 -18 14 -2
31 -7 38 -11 7 -5 12 -4 12 3 0 6 17 29 38 53 21 23 55 67 75 98 20 31 47 61
59 68 13 6 15 9 6 7 -9 -3 -19 0 -21 7 -2 7 -13 -6 -25 -28 -22 -44 -114 -150
-142 -165 -11 -6 -28 -5 -49 3 -27 10 -31 16 -31 49 0 52 38 211 53 220 9 6 8
10 -3 18 -22 15 -45 13 -32 -2z"/>
<path d="M2553 2864 c-6 -16 -22 -45 -34 -64 -27 -42 -14 -30 25 23 15 20 26
45 24 53 -2 11 -7 7 -15 -12z"/>
<path d="M3271 2814 c0 -11 3 -14 6 -6 3 7 2 16 -1 19 -3 4 -6 -2 -5 -13z"/>
<path d="M199 2727 c-16 -34 -29 -67 -29 -74 0 -6 30 -21 66 -33 51 -17 65
-26 61 -39 -3 -9 -24 -68 -47 -131 -41 -114 -100 -325 -100 -359 0 -12 18 -25
53 -39 29 -12 58 -22 64 -22 6 0 17 26 23 58 20 99 40 174 75 283 46 141 63
179 78 179 7 0 41 -9 76 -21 34 -12 63 -20 65 -18 17 25 57 142 50 149 -5 5
-70 27 -144 49 -74 22 -163 49 -198 60 l-64 20 -29 -62z"/>
<path d="M787 2558 c-137 -169 -376 -555 -365 -589 2 -6 33 -24 70 -39 l66
-28 22 54 c12 30 26 54 31 54 13 0 163 -61 176 -71 7 -7 10 -29 6 -62 -6 -66
3 -77 96 -116 40 -17 74 -31 75 -31 0 0 1 120 1 268 1 192 6 307 18 411 10 79
17 145 15 146 -7 7 -142 45 -158 45 -10 0 -34 -19 -53 -42z m33 -300 c-7 -73
-16 -137 -20 -141 -10 -11 -104 28 -108 45 -1 7 21 52 49 98 28 47 59 97 68
112 8 15 17 25 20 23 2 -2 -2 -64 -9 -137z"/>
<path d="M3220 2494 l-25 -15 25 7 c28 7 35 12 29 18 -2 2 -15 -2 -29 -10z"/>
<path d="M1245 2433 c15 -158 38 -359 42 -366 2 -4 -47 -60 -109 -125 -62 -65
-133 -141 -156 -170 -44 -52 -44 -52 -20 -61 12 -5 56 -23 97 -40 41 -17 77
-28 81 -24 3 5 36 44 72 88 113 137 101 140 134 -34 15 -83 30 -154 33 -159 6
-9 197 -92 211 -92 4 0 0 33 -11 73 -18 70 -89 416 -89 435 0 6 74 80 165 166
91 86 164 159 164 163 -2 9 -164 61 -190 62 -9 1 -58 -44 -109 -99 -51 -55
-96 -100 -101 -100 -5 0 -10 30 -10 68 -1 37 -4 98 -8 136 l-6 69 -66 23 c-37
12 -81 25 -97 29 l-31 6 4 -48z"/>
<path d="M3170 2470 c-9 -6 -10 -10 -3 -10 6 0 15 5 18 10 8 12 4 12 -15 0z"/>
<path d="M2587 2400 c3 -19 6 -43 5 -52 0 -10 2 -18 6 -18 4 0 13 -14 21 -31
11 -26 11 -36 -3 -67 -8 -20 -23 -68 -31 -107 -9 -38 -20 -86 -26 -105 -11
-43 -38 -172 -45 -220 -3 -19 -8 -42 -11 -50 -3 -8 -7 -22 -9 -30 -1 -8 -5
-26 -9 -40 l-6 -25 15 26 c53 91 183 564 172 625 -4 19 -10 32 -15 30 -10 -6
-37 26 -56 67 l-15 32 7 -35z"/>
<path d="M1932 2108 c-88 -243 -202 -628 -202 -683 0 -18 56 -47 196 -102 8
-3 20 29 33 88 34 148 115 420 180 607 41 118 56 174 48 177 -48 16 -185 55
-193 55 -5 0 -33 -64 -62 -142z"/>
<path d="M3628 2223 c6 -2 18 -2 25 0 6 3 1 5 -13 5 -14 0 -19 -2 -12 -5z"/>
<path d="M3743 2213 c9 -2 25 -2 35 0 9 3 1 5 -18 5 -19 0 -27 -2 -17 -5z"/>
<path d="M3858 2203 c6 -2 18 -2 25 0 6 3 1 5 -13 5 -14 0 -19 -2 -12 -5z"/>
<path d="M3030 1974 c0 -8 63 -64 72 -64 18 0 5 17 -32 42 -22 15 -40 25 -40
22z"/>
<path d="M3120 1899 c0 -5 5 -7 10 -4 6 3 10 8 10 11 0 2 -4 4 -10 4 -5 0 -10
-5 -10 -11z"/>
<path d="M3150 1880 c8 -5 22 -9 30 -9 10 0 8 3 -5 9 -27 12 -43 12 -25 0z"/>
<path d="M2801 1634 c0 -11 3 -14 6 -6 3 7 2 16 -1 19 -3 4 -6 -2 -5 -13z"/>
<path d="M4828 1526 c-7 -39 -4 -55 8 -44 3 3 4 23 2 44 l-3 39 -7 -39z"/>
<path d="M180 1519 c0 -23 74 -185 116 -254 23 -38 39 -71 35 -73 -4 -1 -25 6
-46 17 -22 11 -42 18 -43 16 -2 -2 7 -17 19 -34 16 -22 78 -60 206 -126 101
-52 186 -95 189 -95 3 0 -9 18 -27 39 -19 24 -57 53 -95 72 -36 17 -73 43 -83
58 -32 45 -108 203 -133 275 -22 67 -25 70 -76 92 -61 28 -62 28 -62 13z"/>
<path d="M2840 1481 c0 -14 48 -111 55 -111 5 0 -42 110 -50 119 -3 2 -5 -1
-5 -8z"/>
<path d="M2645 1165 c3 -38 5 -99 5 -134 0 -35 3 -61 7 -58 8 9 4 138 -7 207
-9 54 -9 54 -5 -15z"/>
<path d="M2680 938 c0 -9 7 -22 17 -29 15 -13 15 -12 3 11 -17 34 -20 36 -20
18z"/>
<path d="M2674 760 c-1 -17 3 -30 7 -30 5 0 9 14 9 30 0 39 -15 39 -16 0z"/>
<path d="M1490 144 c0 -8 5 -12 10 -9 6 4 8 11 5 16 -9 14 -15 11 -15 -7z"/>
</g>
</svg>
